<?xml version="1.0" encoding="utf-8" ?>
<svg xmlns="http://www.w3.org/2000/svg" xmlns:xlink="http://www.w3.org/1999/xlink" width="1023" height="1024">
	<path fill="#3C096C" d="M0 0L1024 0L1024 1024L0 1024L0 0Z"/>
	<path fill="#E09DA5" d="M155.753 532.535L162.633 537.577L150.406 540.666L155.753 532.535Z"/>
	<path fill="#C77DFF" d="M187.291 564.349L193.904 571.223L182.748 574.617L187.291 564.349Z"/>
	<path fill="#9D4EDC" d="M426.503 867.222C428.198 867.103 429.944 866.878 431.632 867.132L429.58 887.825C428.928 883.925 428.287 880.035 427.844 876.105C427.512 873.153 427.465 870.042 426.503 867.222Z"/>
	<path fill="#FDEBAA" d="M145.39 629.527L152.374 632.352C152.667 632.902 153.153 633.386 153.253 634.001C153.39 634.839 152.058 638.724 151.678 639.855C151.179 641.337 150.628 642.836 149.527 643.974L145.39 629.527Z"/>
	<path fill="#FCC29C" d="M184.18 427.635C183.72 425.629 183.466 423.562 183.514 421.5C183.635 416.276 186.428 412.66 189.954 409.175C189.926 411.31 190.082 413.468 189.37 415.5C187.998 419.416 186.943 424.463 184.18 427.635Z"/>
	<path fill="#5A189A" d="M809.852 647.46C810.803 645.914 812.185 644.644 813.444 643.344C814.453 647.328 815.623 651.518 815.546 655.654L809.975 657.733L809.852 647.46Z"/>
	<path fill="#5A189A" d="M154.795 772.457C153.125 778.119 152.071 783.562 151.37 789.426C149.271 787.715 147.133 785.648 145.937 783.19C145.201 781.674 144.667 780.143 145.382 778.5C146.704 775.459 151.837 773.523 154.795 772.457Z"/>
	<path fill="#FEFEFE" d="M367.188 237.365C368.087 241.706 368.103 246.031 368.193 250.443L384.184 251.533L368.48 253.123C368.52 256.53 369.5 264.152 367.153 266.643C366.036 262.518 366.353 257.902 366.292 253.644L349.257 251.434L366.441 250.478C366.375 246.519 365.844 241.077 367.188 237.365Z"/>
	<path fill="#FEFEFE" d="M866.058 736.701L866.686 737.099C868.649 738.75 868.155 745.581 868.157 747.969C872.172 747.852 877.68 747.132 880.99 749.75L880.941 750.75C877.838 752.404 871.697 751.63 868.142 751.571L866.881 763.801L866.25 764.259C865.075 760.304 865.506 755.731 865.53 751.63L851.039 750.638L866.007 748.318L866.058 736.701Z"/>
	<path fill="#9D4EDC" d="M809.975 657.733L815.546 655.654C815.52 664.518 815.494 673.383 815.438 682.247C815.401 688.106 815.604 694.148 814.796 699.955C813.207 699.329 811.671 699.065 809.99 698.789L809.975 657.733Z"/>
	<path fill="#FCC29C" d="M666.225 234.456L670.993 236.476C672.103 240.277 671.524 245.355 671.554 249.322C671.617 257.613 671.621 265.897 671.958 274.183L665.493 273.969C665.453 261 664.49 247.296 666.225 234.456Z"/>
	<path fill="#7B2CBF" d="M359.484 283.487C362.598 281.728 366.689 280.925 370.192 280.283C385.089 277.555 400.02 280.578 414.25 273.97L414.855 269.605L415.03 283.426L408.402 283.574L401.616 283.539L359.484 283.487Z"/>
	<path fill="#FCC29C" d="M142.075 582.779C146.317 584.226 153.117 586.69 157.582 586.32L157.86 589.802C158.483 594.371 157.524 598.439 156.985 602.864C156.663 605.517 155.233 607.346 153.25 609.003L152.623 608.9C151.64 608.78 152.008 608.794 150.956 609.139C144.376 601.807 144.303 591.842 142.075 582.779Z"/>
	<path fill="#C77DFF" d="M427.967 846.963C428.005 844.661 427.425 837.057 428.5 835.487C429.745 838.135 429.5 844.363 429.577 847.404C433.616 849.858 436.921 852.599 440.471 855.686L446.078 856.25L446.47 856.768L439.927 856.925C437.916 861.469 436.518 865.084 431.632 867.132C429.944 866.878 428.198 867.103 426.503 867.222C422.576 865.818 420.736 864.003 418.94 860.259L417.535 856.964L404.64 856.846C409.752 855.865 415.234 855.182 419.707 852.339C422.48 850.576 425.009 848.408 427.967 846.963Z"/>
	<path fill="#DFAAFE" d="M809.99 698.789C811.671 699.065 813.207 699.329 814.796 699.955C813.287 709.401 811.287 717.998 803.063 723.933C799.383 726.589 794.992 728.159 790.52 728.81C785.663 729.517 780.351 729.15 775.435 729.122C766.957 729.073 758.48 729.004 750.002 728.975C718.977 728.869 687.947 728.782 656.924 728.42L656.923 727.063C686.536 727.036 716.095 726.594 745.701 726.27C759.304 726.121 773.104 727.468 786.643 725.678L787.5 725.559C791.088 725.086 794.341 724.299 797.646 722.797C802.619 720.536 807.123 716.491 808.967 711.24L809.18 710.599C810.422 706.964 810.003 702.611 809.99 698.789Z"/>
	<path fill="#FEFEFE" d="M342.534 727.561C402.673 727.645 462.808 727.427 522.947 727.256C537.472 727.214 551.998 727.123 566.523 727.046C576.677 726.992 588.197 725.823 598.075 728.178C593.638 729.214 589.189 729.017 584.664 729.014C578.629 729.009 572.594 729.006 566.558 729.025C541.126 729.102 515.715 728.829 490.289 728.863C456.387 728.908 422.484 729.018 388.582 729.185C377.531 729.239 366.481 729.309 355.43 729.343C349.521 729.362 343.453 729.663 337.558 729.313L338.09 728.143L342.534 727.561Z"/>
	<path fill="#9D4EDC" d="M156.602 766.798C161.458 764.918 173.169 759.666 178.022 761.448C179.131 763.873 178.02 767.397 177.128 769.847C174.528 776.987 168.546 784.682 161.586 787.991C158.281 789.563 154.946 789.616 151.37 789.426C152.071 783.562 153.125 778.119 154.795 772.457L156.602 766.798Z"/>
	<path fill="#DFAAFE" d="M138.073 743.542C140.481 743.455 143.651 743.067 145.942 743.823C149.165 744.886 151.837 747.122 153.292 750.197C154.716 753.207 155.016 756.919 153.852 760.06C152.291 764.274 148.736 766.131 144.9 767.891C142.381 768.026 139.946 768.167 137.5 767.39C133.855 766.231 130.994 763.722 129.29 760.308C128.017 757.759 128.183 754.526 129.154 751.899C130.804 747.43 134.006 745.468 138.073 743.542Z"/>
	<path fill="#E09DA5" d="M103.748 499.693L104.499 499.635C122.001 498.751 144.057 501.737 157.725 513.644C164.712 519.731 166.397 525.837 166.97 534.886C162.984 533.489 159.595 530.254 156.258 527.715C150.904 523.64 145.579 519.534 139.855 515.982C133.523 512.052 126.607 508.607 119.641 505.954C114.529 504.008 109.267 502.528 104.384 500.025L103.748 499.693Z"/>
	<path fill="#9D4EDC" d="M128.374 734.163L131.766 729.656C133.849 727.327 136.332 725.56 139.518 725.448C143.094 725.322 146.079 726.681 148.57 729.25C152.23 733.024 151.626 736.816 151.472 741.705L150.981 742.093C146.666 739.938 142.876 738.391 137.935 739.386C133.902 740.198 130.472 742.818 128.345 746.283C125.032 751.679 124.999 755.591 126.362 761.555C123.506 761.572 119.79 761.984 117.07 761.099C114.074 760.123 110.468 757.158 109.297 754.189C108.3 751.663 109.034 748.745 110.213 746.428C111.649 743.604 114.221 741.265 117.259 740.334C121.655 738.986 125.423 740.923 129.201 742.919L128.374 734.163Z"/>
	<path fill="#7B2CBF" d="M151.472 741.705C156.156 741.957 161.405 741.88 165.703 744.033C168.034 745.201 169.861 747.101 172 748.55C174.011 749.913 176.478 750.69 178.75 751.52C179.549 752.674 179.617 752.622 179.446 754C177.829 754.906 175.839 754.082 174.085 753.988C172.559 755.693 170.92 757.82 168.911 758.954C164.874 761.233 157.638 761.638 156.602 766.798L153.952 770.033C150.335 774.158 147.049 774.809 141.843 775.14L141.176 776.544C138.601 781.798 135.334 784.151 129.848 786.029C127.993 785.124 126.155 784.204 124.5 782.958C122.132 781.176 119.786 778.025 119.502 774.989C119.077 770.451 123.608 764.942 126.353 761.562C130.009 766.248 133.546 769.966 139.775 770.809C144.236 771.414 148.539 770.514 152.134 767.751C155.055 765.507 157.578 762.136 157.948 758.379C158.581 751.94 154.879 746.748 150.981 742.093L151.472 741.705Z"/>
	<path fill="#9D4EDC" d="M651.194 125.885C652.646 127.465 652.366 130.661 652.566 132.75C653.097 138.304 653.516 145.18 657.057 149.75C663.014 157.44 674.751 157.926 683.669 158.934C675.716 159.851 665.428 160.405 659.25 166.092C652.043 172.726 651.964 185.684 651.257 194.773C650.004 192.007 649.982 188.975 649.698 185.99C649.062 179.288 648.383 171.526 643.596 166.316C637.796 160.004 626.031 160.073 618.111 159.575C625.187 158.701 633.379 157.924 639.748 154.489C650.414 148.737 648.088 136.21 651.056 126.334L651.194 125.885Z"/>
	<path fill="#FCC29C" d="M878.978 347.259C880.122 349.68 879.882 352.483 879.974 355.115C880.255 363.19 879.599 374.964 884.6 381.75C887.369 385.507 892.334 387.677 896.838 388.438L919 390.226L919.408 390.767C909.996 390.931 895.426 390.095 887.804 396.448C879.921 403.019 880.553 421.172 879.869 430.75L879.25 431.01L878.718 429.754C878.174 424.752 877.609 419.752 877.065 414.75C876.465 409.232 876.311 402.102 872.412 397.744C866.888 391.57 844.403 391.088 836.051 390.805L836.027 390.25C840.878 389.756 845.75 389.29 850.617 388.991C856.822 388.608 864.119 389.007 869.5 385.457C877.909 379.911 877.039 367.574 877.498 358.75C877.701 354.845 878.231 351.094 878.978 347.259Z"/>
	<defs>
		<linearGradient id="gradient_0" gradientUnits="userSpaceOnUse" x1="203.54079" y1="547.24377" x2="169.23538" y2="540.41083">
			<stop offset="0" stop-color="#CE6ADE"/>
			<stop offset="1" stop-color="#EF90EE"/>
		</linearGradient>
	</defs>
	<path fill="url(#gradient_0)" d="M171.798 517.515C181.036 520.015 191.435 527.57 196.966 535.25C201.91 542.114 203.628 551.277 202.196 559.573C201.525 563.461 200.639 567.021 199.325 570.746C197.622 569.449 196.294 567.455 194.954 565.788C192.117 562.259 189.454 558.594 186.568 555.103C182.271 549.907 177.59 545.08 172.929 540.214L175.144 536.235C177.628 530.356 173.937 522.968 171.798 517.515Z"/>
	<path fill="#FCC29C" d="M87.1402 499.999C97.0612 502.205 106.937 504.522 116.423 508.242C130.976 513.95 143.786 522.594 155.753 532.535L150.406 540.666L132.992 541.496C129.092 536.935 126.082 531.72 122.429 526.979C112.47 514.054 101.352 507.281 87.1402 499.999Z"/>
	<path fill="#C77DFF" d="M150.473 678.661C159.627 685.625 167.194 694.443 177.967 699.059C179.396 704.115 179.105 725.519 176.643 729.955L176.373 730.353L164.719 723.42C157.627 718.443 152.915 712.172 151.495 703.435C150.152 695.177 150.43 686.999 150.473 678.661Z"/>
	<path fill="#9D4EDC" d="M851.508 237.815C855.624 236.302 858.064 234.398 860.921 231.194L861.108 334.16C857.644 331.26 854.515 329.609 850.216 328.241C850.736 327.212 850.949 326.595 850.995 325.422C851.676 307.763 850.921 289.856 851.038 272.165C851.094 263.793 851.884 255.464 851.936 247.083C851.954 244.115 852.335 240.681 851.508 237.815Z"/>
	<path fill="#9D4EDC" d="M409.449 779.672C414.363 789.626 415.55 799.328 411.928 809.978C408.684 819.517 400.966 827.842 391.953 832.255C382.587 836.84 371.952 837.335 362.173 833.741C357.78 832.127 353.825 829.944 350.958 826.134C354.037 826.744 356.884 828.456 359.626 829.942L364.249 822.787C370.155 823.782 376.767 824.901 382.719 823.488C389.691 821.834 395.658 818.084 399.343 811.855C402.855 805.917 404.009 798.93 402.272 792.223L402.015 791.25L399.073 782.32C402.384 781.095 406.029 780.596 409.449 779.672Z"/>
	<path fill="#9D4EDC" d="M191.596 584.12L200.44 580.971C208.8 593.78 215.369 607.107 220.27 621.603C208.524 623.834 195.509 626.745 183.525 625.387C185.575 619.951 186.35 613.702 187.483 608C189.048 600.132 190.974 592.125 191.596 584.12Z"/>
	<defs>
		<linearGradient id="gradient_1" gradientUnits="userSpaceOnUse" x1="155.2477" y1="599.7226" x2="187.34946" y2="604.92828">
			<stop offset="0" stop-color="#FBCFBE"/>
			<stop offset="1" stop-color="#DB75D2"/>
		</linearGradient>
	</defs>
	<path fill="url(#gradient_1)" d="M191.596 584.12C190.974 592.125 189.048 600.132 187.483 608C186.35 613.702 185.575 619.951 183.525 625.387C170.484 622.65 160.32 619.074 150.956 609.139C152.008 608.794 151.64 608.78 152.623 608.9L153.25 609.003C155.233 607.346 156.663 605.517 156.985 602.864C157.524 598.439 158.483 594.371 157.86 589.802L157.582 586.32C169.133 586.955 180.27 586.795 191.596 584.12Z"/>
	<defs>
		<linearGradient id="gradient_2" gradientUnits="userSpaceOnUse" x1="148.91429" y1="652.27582" x2="186.94135" y2="658.44409">
			<stop offset="0" stop-color="#FAE7AB"/>
			<stop offset="1" stop-color="#D564E1"/>
		</linearGradient>
	</defs>
	<path fill="url(#gradient_2)" d="M152.374 632.352L171.25 638.519L171.971 638.696C177.432 639.951 184.387 639.453 190.004 639.473C189.035 653.174 187.572 665.757 181.7 678.296L173.11 674.113C160.08 667.352 153.844 657.664 149.527 643.974C150.628 642.836 151.179 641.337 151.678 639.855C152.058 638.724 153.39 634.839 153.253 634.001C153.153 633.386 152.667 632.902 152.374 632.352Z"/>
	<path fill="#9D4EDC" d="M213.322 547.246L215.25 548.118C225.005 553.422 231.298 563.179 234.561 573.568C239.068 587.92 231.778 602.373 225.357 614.813L224.349 615.75C222.735 613.842 221.802 611.263 220.744 609.006C218.945 605.17 217.179 601.311 215.226 597.551C211.745 590.847 207.716 584.45 204.19 577.77C208.71 572.394 212.403 565.714 213.296 558.658C213.764 554.96 213.432 550.973 213.322 547.246Z"/>
	<defs>
		<linearGradient id="gradient_3" gradientUnits="userSpaceOnUse" x1="221.26094" y1="429.74597" x2="188.02917" y2="418.52713">
			<stop offset="0" stop-color="#D57B54"/>
			<stop offset="1" stop-color="#FDB882"/>
		</linearGradient>
	</defs>
	<path fill="url(#gradient_3)" d="M189.954 409.175C194.706 405.352 200.327 403.674 206.383 404.274C211.738 404.805 216.037 406.975 219.411 411.196C221.187 413.418 222.138 416.232 222.602 419L222.738 419.773C223.658 425.441 222.764 432.033 219.339 436.75C216.106 441.203 211.184 443.694 205.793 444.342C200.702 444.954 195.245 442.905 191.36 439.688C187.48 436.476 185.218 432.563 184.18 427.635C186.943 424.463 187.998 419.416 189.37 415.5C190.082 413.468 189.926 411.31 189.954 409.175Z"/>
	<defs>
		<linearGradient id="gradient_4" gradientUnits="userSpaceOnUse" x1="136.25421" y1="561.56952" x2="185.13383" y2="558.38306">
			<stop offset="0" stop-color="#FFE0AA"/>
			<stop offset="1" stop-color="#EB9ABF"/>
		</linearGradient>
	</defs>
	<path fill="url(#gradient_4)" d="M168.865 542.547L187.291 564.349L182.748 574.617C174.312 575.86 164.695 577.889 156.187 576.668L155.25 576.529C151.826 576.044 148.668 575.01 145.766 573.082C137.438 567.55 135.885 555.447 134.146 546.427C140.932 547.054 147.72 547.293 154.5 546.527C159.537 545.957 164.141 544.31 168.865 542.547Z"/>
	<path fill="#C77DFF" d="M339.232 793.623C338.963 791.543 338.677 788.949 339.155 786.887C341.224 777.978 347.775 768.158 355.75 763.556C363.71 758.963 374.592 756.795 383.568 759.154C396.214 762.477 402.563 768.972 409.449 779.672C406.029 780.596 402.384 781.095 399.073 782.32C393.624 775.815 387.54 770.954 378.718 770.153C370.816 769.436 362.889 771.233 356.83 776.576C351.754 781.052 349.316 787.562 349.039 794.21C348.691 802.539 351.227 811.297 356.955 817.521C359.061 819.809 361.547 821.307 364.249 822.787L359.626 829.942C356.884 828.456 354.037 826.744 350.958 826.134C346.325 822.836 343.204 817.641 341.368 812.361L339.232 793.623Z"/>
	<path fill="#C77DFF" d="M180.988 773.927L258.027 806.088C256.215 811.287 256.936 818.797 257.194 824.288L181.003 791.534L180.988 773.927Z"/>
	<path fill="#9D4EDC" d="M253.352 294.065C251.723 293.139 249.728 292.825 247.939 292.299C242.078 290.576 236.784 286.777 233.905 281.296C231.43 276.584 230.483 269.87 232.178 264.748L232.442 264C233.811 259.957 236.295 256.919 239.553 254.227C244.013 250.542 249.497 249.521 255.122 249.987C260.364 250.422 265.005 253.487 268.263 257.493C275.101 265.899 271.778 274.029 270.62 283.5L271.349 284.249C263.897 285.957 258.907 288.972 253.352 294.065Z"/>
	<path fill="#3C096C" d="M250.094 260.509C252.838 260.458 254.938 260.461 257.404 261.86C259.617 263.115 261.597 265.387 262.25 267.88C263.052 270.94 263.171 274.699 261.483 277.5C259.89 280.145 257.568 281.173 254.7 281.95C253.13 281.93 251.679 281.797 250.164 281.354C247.055 280.445 244.597 278.269 243.167 275.371C241.876 272.758 241.568 269.304 242.657 266.572C243.974 263.267 247.074 261.878 250.094 260.509Z"/>
	<path fill="#7B2CBF" d="M893.756 468.141C897.251 468.088 901.058 468.856 904.124 470.549C909.269 473.391 913.8 478.451 915.25 484.205C916.608 489.592 915.677 495.533 912.646 500.202C908.928 505.931 903.356 508.655 896.855 510.101C892.795 510.113 889.034 510.066 885.237 508.38C879.996 506.053 876.02 501.643 874.048 496.268L873.819 495.624C873.465 494.661 873.166 493.773 873.016 492.75C872.212 487.265 874.449 481.046 877.744 476.75C881.868 471.375 887.191 469.079 893.756 468.141Z"/>
	<path fill="#3C096C" d="M891.163 479.462C892.327 479.415 893.427 479.424 894.566 479.711C898.172 480.618 901.188 482.338 903.135 485.615C904.487 487.89 904.891 490.748 904.038 493.283C902.997 496.379 900.097 497.982 897.397 499.429C895.806 499.496 894.086 499.645 892.506 499.422C889.874 499.051 887.184 497.058 885.684 494.923C883.979 492.495 883.904 489.559 884.537 486.75C885.323 483.26 888.358 481.288 891.163 479.462Z"/>
	<path fill="#C77DFF" d="M180.386 751.587C185.699 753.305 190.895 755.702 196.065 757.817C205.039 761.488 214.005 765.177 222.984 768.834C230.191 771.769 237.394 774.714 244.599 777.654C248.769 779.355 253.18 780.788 257.098 783.006C257.008 787.247 256.966 791.482 256.953 795.723C256.948 797.37 257.265 799.912 256.57 801.382C246.391 797.767 236.725 792.705 226.736 788.595C211.392 782.282 195.08 777.629 180.956 768.731L180.386 751.587Z"/>
	<path fill="#DFAAFE" d="M179.322 735.727C180.834 733.789 180.931 732.008 181.233 729.657L257.106 758.55L257.002 778L256.125 778.844C247.014 776.084 238.246 771.035 229.525 767.138C213.381 759.925 196.971 752.941 180.47 746.572C180.527 742.934 181.116 739.018 179.322 735.727Z"/>
	<path fill="#7B2CBF" d="M258.027 806.088L337.513 771.002C337.52 776.722 337.418 782.369 338.07 788.055L338.15 789.129C318.505 797.922 298.713 806.378 279 815.016C273.984 817.214 268.969 819.41 263.95 821.603C261.874 822.51 259.426 823.967 257.194 824.288C256.936 818.797 256.215 811.287 258.027 806.088Z"/>
	<path fill="#9D4EDC" d="M337.011 701.997L337.088 720.713C322.442 727.668 307.582 733.988 292.766 740.553C285.103 743.948 277.536 747.565 269.766 750.713C266.071 752.209 261.94 754.097 257.988 754.666C257.917 749.116 258.833 740.826 256.985 735.657C270.077 732.372 282.303 726.671 294.563 721.145C308.71 714.768 322.793 708.211 337.011 701.997Z"/>
	<path fill="#9D4EDC" d="M257.098 783.006L337.008 747.671L337.027 756.136L358.146 756.788C351.022 757.846 344.348 758.016 337.155 758.001L337.445 766.554C316.508 775.853 295.49 785.003 274.47 794.115C270.95 795.641 259.464 801.703 256.57 801.382C257.265 799.912 256.948 797.37 256.953 795.723C256.966 791.482 257.008 787.247 257.098 783.006Z"/>
	<path fill="#9D4EDC" d="M259.386 758.363C268.966 755.383 277.721 750.914 286.844 746.818C296.49 742.486 306.306 738.516 315.97 734.215C319.863 732.483 333.574 724.869 336.581 725.25C336.864 726.186 337.132 726.737 337.75 727.496L342.534 727.561L338.09 728.143L337.558 729.313C336.018 732.599 337.023 740.074 337.043 743.868C318.433 752.049 299.891 760.383 281.278 768.558C273.934 771.783 266.318 775.938 258.75 778.51C257.922 778.791 256.984 779.074 256.125 778.844L257.002 778L257.106 758.55L259.386 758.363Z"/>
	<path fill="#C77DFF" d="M622.447 725.084C622.515 723.502 622.228 720.093 623 718.822C624.007 722.136 623.306 726.076 623.938 729.52L623.891 773.221C623.091 777.663 622.971 781.736 622.966 786.25C622.39 785.809 621.382 784.789 620.75 784.555C619.254 784.001 614.635 784.541 612.781 784.537C602.326 784.517 591.87 784.521 581.415 784.523C526.926 784.533 472.437 784.558 417.948 784.588L416.062 777.392L622.494 777.24L622.447 725.084Z"/>
	<path fill="#C77DFF" d="M180.954 796.882L257.03 828.985C257.035 834.01 257.037 839.034 257.022 844.059C257.016 845.875 257.382 848.718 256.595 850.335L180.978 817.866L180.954 796.882Z"/>
	<path fill="#FEFEFE" d="M124.744 667.158C129.648 666.912 134.644 668.175 138.859 670.682C143.538 673.464 147.376 679.148 148.581 684.379C149.987 690.484 149.055 697.035 145.591 702.302C141.773 708.107 135.438 710.621 128.922 712.015C124.03 712.325 119.341 711.95 114.977 709.537C109.997 706.785 106.183 701.332 104.557 695.969L104.346 695.25L103.655 692.761C102.553 686.963 104.338 680.617 107.75 675.907C111.84 670.261 118.114 668.166 124.744 667.158Z"/>
	<path fill="#3C096C" d="M124.393 676.561C126.175 676.621 128.168 676.818 129.891 677.288C133.403 678.247 136.499 680.596 138.112 683.888C139.514 686.75 139.853 690.239 138.798 693.25C137.139 697.987 133.713 699.803 129.427 701.746C126.897 702.019 124.534 702.115 122.079 701.312C118.868 700.261 116.465 697.392 115.171 694.364C113.858 691.291 113.658 686.465 114.985 683.419C116.729 679.415 120.574 677.895 124.393 676.561Z"/>
	<path fill="#7B2CBF" d="M339.232 793.623L341.368 812.361C338.342 814.235 335.316 816.139 332.125 817.726C321.127 823.194 309.609 827.608 298.404 832.623C289.199 836.743 280.092 841.086 270.895 845.23C267.367 846.819 260.219 850.691 256.595 850.335C257.382 848.718 257.016 845.875 257.022 844.059C257.037 839.034 257.035 834.01 257.03 828.985C262.688 827.988 267.918 825.446 273.133 823.111C279.556 820.235 285.991 817.389 292.437 814.567C304.117 809.453 315.713 804.24 327.298 798.915C331.249 797.099 335.366 795.606 339.232 793.623Z"/>
	<path fill="#9D4EDC" d="M190.004 639.473C201.978 638.042 212.549 636.065 223.612 631.048C225.628 638.323 227.27 645.647 228.943 653.006C230.272 658.853 231.176 666.096 234.52 671.196C226.43 675.99 217.433 679.883 208.428 682.581C205.019 679.317 196.356 680.579 191.734 680.165C188.217 679.85 185.09 679.308 181.7 678.296C187.572 665.757 189.035 653.174 190.004 639.473Z"/>
	<path fill="#9D4EDC" d="M248.106 578.715C258.115 597.489 266.837 621.188 264.234 642.772C263.424 649.489 262.484 656.098 259.613 662.298L256.546 662.09L237.549 669.916L227.986 628.039C235.583 617.168 243.874 607.014 246.749 593.747C247.808 588.86 247.899 583.691 248.106 578.715Z"/>
	<path fill="#FEFEFE" d="M271.349 284.249L274.25 283.905C280.459 283.168 286.868 283.445 293.119 283.442C303.495 283.438 313.901 283.316 324.275 283.58C335.972 283.877 347.825 284.854 359.484 283.487L401.616 283.539L402.064 288.993L354.124 289.015C334.245 289.003 314.366 288.996 294.487 289.008C288.937 289.011 283.387 289.015 277.838 289.024C274.829 289.029 271.61 288.765 268.651 289.304C264.932 289.982 261.676 292.107 259.028 294.75C252.348 301.415 251.122 311.226 251.207 320.25C251.289 328.919 251.926 337.591 252.002 346.25C252.312 381.631 252.026 417.04 252.008 452.423C252.002 466.353 251.996 480.283 251.995 494.213C251.994 503.924 251.485 514.012 252.934 523.633L253.073 551.963C253.016 553.522 252.662 554.3 251.5 555.392C250.402 555.502 249.718 555.654 248.674 555.202C247.952 554.889 247.712 554.516 247.496 553.75C246.731 551.034 247.481 545.745 247.481 542.748C247.482 530.871 247.473 518.993 247.467 507.116C247.439 456.7 247.072 406.287 247.007 355.872C246.995 346.389 247.059 336.899 246.929 327.419C246.849 321.594 246.364 315.645 246.858 309.839C247.418 303.248 249.256 299.162 253.352 294.065C258.907 288.972 263.897 285.957 271.349 284.249Z"/>
	<path fill="#DFAAFE" d="M177.967 699.059L177.928 698.232C185.021 704.348 196.322 706.412 204.889 709.961C215.353 714.296 225.692 718.724 235.894 723.661C235.145 724.816 235.174 725.111 235.123 726.507L256.985 735.657C258.833 740.826 257.917 749.116 257.988 754.666L257.871 755.007L258.289 757.657L259.386 758.363L257.106 758.55L181.233 729.657C180.931 732.008 180.834 733.789 179.322 735.727C178.039 734.229 177.316 732.107 176.373 730.353L176.643 729.955C179.105 725.519 179.396 704.115 177.967 699.059Z"/>
	<path fill="#5A189A" d="M177.967 699.059L177.928 698.232C185.021 704.348 196.322 706.412 204.889 709.961C215.353 714.296 225.692 718.724 235.894 723.661C235.145 724.816 235.174 725.111 235.123 726.507L180.967 703.341L180.994 723.546C198.161 729.729 214.765 737.294 231.5 744.538C239.771 748.119 249.075 753.438 257.871 755.007L258.289 757.657L259.386 758.363L257.106 758.55L181.233 729.657C180.931 732.008 180.834 733.789 179.322 735.727C178.039 734.229 177.316 732.107 176.373 730.353L176.643 729.955C179.105 725.519 179.396 704.115 177.967 699.059Z"/>
	<path fill="#5A189A" d="M364.249 822.787C361.547 821.307 359.061 819.809 356.955 817.521C351.227 811.297 348.691 802.539 349.039 794.21C349.316 787.562 351.754 781.052 356.83 776.576C362.889 771.233 370.816 769.436 378.718 770.153C387.54 770.954 393.624 775.815 399.073 782.32L402.015 791.25L402.272 792.223C404.009 798.93 402.855 805.917 399.343 811.855C395.658 818.084 389.691 821.834 382.719 823.488C376.767 824.901 370.155 823.782 364.249 822.787Z"/>
	<path fill="#C77DFF" d="M361.401 815.132C367.294 812.563 374.391 811.652 379.86 808.221C383.148 806.157 384.894 803.885 385.781 800.114L386.5 800.847L388.488 800.836L398.43 801.034C395.709 808.411 392.454 814.505 384.934 817.832C379.554 820.213 372.451 820.793 367.002 818.406C365.063 817.556 363.16 816.294 361.401 815.132Z"/>
	<path fill="#FEFEFE" d="M355.642 807.04C354.099 802.317 352.488 797.064 353.784 792.065L353.945 791.5L355.271 787.682C357.535 782.708 361.702 778.629 366.891 776.805C373.261 774.567 381.746 775.352 387.766 778.341C392.567 780.726 395.955 786.276 397.442 791.237L397.662 791.997C398.555 795.018 398.463 797.919 398.43 801.034L388.488 800.836L386.5 800.847L385.781 800.114C384.894 803.885 383.148 806.157 379.86 808.221C374.391 811.652 367.294 812.563 361.401 815.132C358.71 812.974 356.871 810.238 355.642 807.04Z"/>
	<path fill="#5A189A" d="M383.746 788.242C385.696 789.967 387.09 791.432 388.455 793.688L388.488 800.836L386.5 800.847L385.781 800.114C385.887 799.051 386.014 797.952 385.893 796.887C385.576 794.079 383.86 792.835 381.832 791.106C382.656 790.242 383.17 789.275 383.746 788.242Z"/>
	<path fill="#7B2CBF" d="M381.351 790.971C380.806 790.758 380.339 790.57 379.75 790.509C376.933 790.217 373.255 790.085 371.51 792.75C370.065 794.957 371.155 796.847 368.75 798.877C367.132 798.34 366.856 798.246 365.75 796.968C365.457 795.083 365.573 793.757 366.37 791.994C367.473 789.55 369.471 787.582 372.055 786.75C376.054 785.463 380.076 786.595 383.746 788.242C383.17 789.275 382.656 790.242 381.832 791.106L381.351 790.971Z"/>
	<path fill="#DFAAFE" d="M381.351 790.971L381.832 791.106C383.86 792.835 385.576 794.079 385.893 796.887C386.014 797.952 385.887 799.051 385.781 800.114C384.894 803.885 383.148 806.157 379.86 808.221C374.391 811.652 367.294 812.563 361.401 815.132C358.71 812.974 356.871 810.238 355.642 807.04C360.951 806.077 366.672 804.503 371.087 801.259C374.878 798.474 378.139 794.404 381.351 790.971Z"/>
	<path fill="#FEFEFE" d="M256.546 662.09C257.32 664.193 257.042 666.733 257.055 668.96C257.081 673.392 257.089 677.824 257.109 682.256C257.182 698.793 257.383 715.221 257.06 731.767C249.725 730.967 242.616 726.507 235.894 723.661C225.692 718.724 215.353 714.296 204.889 709.961C196.322 706.412 185.021 704.348 177.928 698.232C181.526 691.991 189.247 690.488 195.5 688.016C199.844 686.299 204.133 684.419 208.428 682.581C217.433 679.883 226.43 675.99 234.52 671.196L237.549 669.916L256.546 662.09Z"/>
	<path fill="#DFAAFE" d="M256.546 662.09L259.613 662.298L289.972 675.388C295.276 679.017 300.541 681.512 306.39 684.104C309.788 685.609 313.277 687.212 316.937 687.949C324.089 690.594 330.926 693.571 337.512 697.429C324.308 705.826 308.272 711.013 293.888 717.136C281.993 722.2 269.698 729.028 257.06 731.767C257.383 715.221 257.182 698.793 257.109 682.256C257.089 677.824 257.081 673.392 257.055 668.96C257.042 666.733 257.32 664.193 256.546 662.09Z"/>
	<path fill="#3C096C" d="M624.035 676.06C628.659 677.435 633.162 678.897 637.955 679.601C642.229 680.23 646.701 680.279 651.017 680.518L651.068 689.291L655.901 684.95C655.903 689.756 655.078 724.792 656.492 726.865L656.923 727.063L656.924 728.42L656.737 729.007C656.163 731.424 656.522 734.619 656.52 737.124C656.515 742.499 656.524 747.875 656.519 753.25C656.511 762.289 657.095 773.493 648.832 779.401C643.18 783.443 636.377 783.824 629.668 784.138C628.602 784.188 626.448 783.985 625.495 784.317C624.566 784.64 623.674 785.355 623.289 786.25L622.966 786.25C622.971 781.736 623.091 777.663 623.891 773.221L623.938 729.52L624.035 676.06Z"/>
	<path fill="#9D4EDC" d="M655.901 684.95C655.903 689.756 655.078 724.792 656.492 726.865L656.923 727.063L656.924 728.42L656.737 729.007C656.163 731.424 656.522 734.619 656.52 737.124C656.515 742.499 656.524 747.875 656.519 753.25C656.511 762.289 657.095 773.493 648.832 779.401C643.18 783.443 636.377 783.824 629.668 784.138C628.602 784.188 626.448 783.985 625.495 784.317C624.566 784.64 623.674 785.355 623.289 786.25L622.966 786.25C622.971 781.736 623.091 777.663 623.891 773.221C623.928 774.626 623.981 775.946 624.25 777.333C631.647 777.609 640.197 777.867 645.923 772.309C649.342 768.99 650.426 764.322 651.074 759.784C652.223 751.738 651.23 743.028 651.095 734.916C650.842 719.683 650.624 704.525 651.068 689.291L655.901 684.95Z"/>
	<path fill="#7B2CBF" d="M856.284 637.6C863.872 636.823 870.671 637.702 877.495 641.356C885.586 645.69 891.98 652.958 894.479 661.875C897.007 670.897 895.41 681.954 890.573 690C885.057 699.177 876.013 703.993 865.928 706.364C858.033 707.449 850.76 706.163 843.849 702.134C835.683 697.374 829.528 688.431 827.461 679.311C825.61 671.145 827.175 660.436 831.659 653.375C837.574 644.06 845.825 639.906 856.284 637.6Z"/>
	<path fill="#3C096C" d="M859.819 653.092C863.887 652.878 867.724 653.136 871.49 654.812C875.361 656.535 878.359 660.396 879.834 664.28L880.096 665L880.594 666.384C881.987 671.048 880.635 677.274 878.347 681.404C875.692 686.197 870.607 688.489 865.607 689.931C861.914 690.171 858.104 689.806 854.724 688.231C850.259 686.151 846.774 682.106 845.279 677.413C843.765 672.66 844.644 667.025 846.981 662.693C849.863 657.351 854.13 654.658 859.819 653.092Z"/>
	<path fill="#9D4EDC" d="M414.855 269.605C416.593 260.751 419.728 253.961 427.368 248.703C432.343 245.28 438.577 243.646 444.52 243.137C458.551 241.938 472.866 242.993 486.949 243.002C515.586 243.022 544.223 242.999 572.86 242.997C583.44 242.997 594.053 243.15 604.629 242.949C614.988 242.752 626.693 241.144 636.848 243.193L637.75 243.383L638.657 243.563C643.768 244.61 648.247 246.827 651.162 251.282C652.825 253.824 653.59 256.632 653.915 259.625C655.132 270.836 653.661 282.45 653.583 293.714C653.532 301.025 653.573 308.338 653.594 315.649C653.606 319.997 653.885 324.55 653.297 328.855C652.901 331.258 652.527 334.429 652.98 336.833L653.192 346.115C653.023 346.74 652.762 347.275 652.492 347.862C651.121 347.92 649.155 348.341 648.096 347.5L647.945 338.698L647.586 338.488C647.276 337.289 647.572 337.787 646.75 336.966C643.427 336.452 637.291 334.993 634.308 336.752L633.077 329.861C631.975 329.019 630.895 328.477 629.645 327.905C627.567 327.997 625.616 328 623.549 327.749L623.983 326.75C624.757 321.471 623.986 314.896 623.974 309.505C623.951 298.519 623.911 287.534 623.859 276.549C623.835 271.484 624.462 265.305 623.316 260.362C622.365 256.265 619.887 253.226 617.35 250.006C577.29 250.019 537.231 250.029 497.171 250.023C486.467 250.022 475.747 250.133 465.044 249.999C459.089 249.925 453.064 249.309 447.113 249.609C442.322 249.85 437.553 250.147 433.253 252.492C425.895 256.505 421.629 263.791 419.373 271.639C418.794 275.701 418.052 279.81 419.013 283.873L418.669 284.022L408.402 283.574L415.03 283.426L414.855 269.605Z"/>
	<path fill="#3C096C" d="M624.735 250.037C628.501 249.988 632.624 249.633 636.334 250.237L637 250.357C639.294 250.755 641.242 251.42 643.09 252.901C645.734 255.02 647.209 258.444 647.563 261.755L647.637 262.5C648.866 273.21 647.968 284.991 647.918 295.822L647.945 338.698L647.586 338.488C647.276 337.289 647.572 337.787 646.75 336.966C643.427 336.452 637.291 334.993 634.308 336.752L633.077 329.861C631.975 329.019 630.895 328.477 629.645 327.905C628.623 312.523 629.283 296.443 629.528 281C629.628 274.656 630.732 267.722 629.67 261.44C628.933 257.083 627.049 253.705 624.735 250.037Z"/>
	<path fill="#5A189A" d="M647.454 329.953L647.918 295.822L647.945 338.698L647.586 338.488C647.276 337.289 647.572 337.787 646.75 336.966C643.427 336.452 637.291 334.993 634.308 336.752L633.077 329.861L647.454 329.953Z"/>
	<path fill="#3C096C" d="M809.852 647.46L809.975 657.733L809.99 698.789C810.003 702.611 810.422 706.964 809.18 710.599L808.967 711.24C807.123 716.491 802.619 720.536 797.646 722.797C794.341 724.299 791.088 725.086 787.5 725.559L786.643 725.678C773.104 727.468 759.304 726.121 745.701 726.27C716.095 726.594 686.536 727.036 656.923 727.063L656.492 726.865L656.475 684.25C656.529 683.507 656.902 681.223 657.75 681C658.965 680.679 661.397 681.001 662.715 681.002C667.115 681.005 671.515 681.01 675.915 681.019C691.573 681.051 707.223 681.415 722.879 681.496C731.492 681.541 740.135 681.654 748.688 680.471C773.193 677.08 791.902 663.607 809.852 647.46Z"/>
	<path fill="#FEFEFE" d="M677.387 693.476L678.676 693.434C680.9 693.382 682.523 693.329 684.146 695.055C685.239 696.219 686.029 698.26 685.93 699.856C685.769 702.463 684.042 704.098 682.239 705.759C680.071 706.067 678.397 706.295 676.574 704.841C675.094 703.66 674.118 701.906 674.01 700C673.845 697.082 675.504 695.427 677.387 693.476Z"/>
	<defs>
		<linearGradient id="gradient_5" gradientUnits="userSpaceOnUse" x1="355.43179" y1="400.99243" x2="250.00929" y2="403.7771">
			<stop offset="0" stop-color="#3D096B"/>
			<stop offset="1" stop-color="#672392"/>
		</linearGradient>
	</defs>
	<path fill="url(#gradient_5)" d="M252.934 523.633C251.485 514.012 251.994 503.924 251.995 494.213C251.996 480.283 252.002 466.353 252.008 452.423C252.026 417.04 252.312 381.631 252.002 346.25C251.926 337.591 251.289 328.919 251.207 320.25C251.122 311.226 252.348 301.415 259.028 294.75C261.676 292.107 264.932 289.982 268.651 289.304C271.61 288.765 274.829 289.029 277.838 289.024C283.387 289.015 288.937 289.011 294.487 289.008C314.366 288.996 334.245 289.003 354.124 289.015C353.524 291.609 352.386 293.802 351.192 296.156C349.478 302.003 349.933 308.222 349.95 314.25C349.971 321.589 349.992 328.928 350.021 336.267L349.278 336.382C338.137 338.033 325.648 336.94 314.384 336.927C311.018 336.923 306.83 336.457 303.536 337.149C298.227 338.264 291.983 341.564 288.66 345.934C285.473 350.125 284.093 354.766 283.422 359.898C282.809 364.579 282.996 369.378 282.987 374.089C282.974 381.108 282.971 388.128 282.971 395.147C282.97 419.165 282.994 443.183 282.987 467.201C282.986 472.545 282.984 477.889 282.971 483.233C282.965 485.75 283.235 488.915 282.567 491.346C278.023 494.032 274.763 497.734 270.832 501.164C265.26 506.027 257.116 511.179 253.987 518L253.654 518.672C252.965 520.183 253.034 522.002 252.934 523.633Z"/>
	<path fill="#FEFEFE" d="M304.068 324.851L304.592 325.094L310.197 332.039C308.351 333.652 306.544 334.889 304.444 336.128L297.131 331.106L297.654 330.793L298.513 330.25C301.039 328.701 302.339 327.188 304.068 324.851Z"/>
	<path fill="#FEFEFE" d="M666.225 234.456C665.696 233.005 665.198 231.3 665.141 229.75C665.031 226.765 666.494 223.403 668.553 221.27C671.864 217.84 677.892 217.028 681.973 214.428C689.502 209.633 696.588 204.121 703.936 199.057C714.334 191.892 725.015 185.125 735.518 178.116C742.328 173.572 748.963 168.242 756.344 164.663C758.439 163.647 760.852 162.842 763.204 162.818C766.943 162.78 770.497 164.411 773.66 166.26C782.161 171.228 790.084 177.288 798.253 182.777C813.478 193.01 828.806 203.09 844.031 213.322C845.476 214.293 846.932 215.279 848.563 215.916C851.999 217.258 856.141 217.689 858.75 220.571C861.447 223.552 861.012 227.47 860.921 231.194C858.064 234.398 855.624 236.302 851.508 237.815C852.335 240.681 851.954 244.115 851.936 247.083C851.884 255.464 851.094 263.793 851.038 272.165C850.921 289.856 851.676 307.763 850.995 325.422C850.949 326.595 850.736 327.212 850.216 328.241C854.515 329.609 857.644 331.26 861.108 334.16L862.303 340.166C860.853 343.696 859.206 346.314 855.515 347.83L853.578 348.466C849.622 347.406 847.068 345.38 844.225 342.59C842.786 339.363 842.945 336.393 843.055 332.952L773.544 284.47L768.97 287.42L768.991 357.2C766.052 355.77 762.776 353.927 759.444 353.832C753.627 353.461 748.487 350.498 742.693 350.133C732.103 349.467 721.105 350.069 710.478 350.051C705.079 350.042 699.734 350.277 694.428 349.098C689.195 349.053 682.965 349.185 678.065 347.174C673.609 345.345 669.585 341.62 665.999 338.491L665.589 308.287L665.493 273.969L671.958 274.183C671.621 265.897 671.617 257.613 671.554 249.322C671.524 245.355 672.103 240.277 670.993 236.476L666.225 234.456Z"/>
	<path fill="#9D4EDC" d="M811.758 259.172C814.083 260.854 816.352 262.461 818.344 264.543C817.505 273.155 815.975 281.132 808.75 286.876C805.391 289.547 799.803 290.485 798.295 294.855C791.753 291.679 783.713 286.713 778.591 281.625L811.758 259.172Z"/>
	<path fill="#7B2CBF" d="M844.968 235.281L851.508 237.815C852.335 240.681 851.954 244.115 851.936 247.083C851.884 255.464 851.094 263.793 851.038 272.165C850.921 289.856 851.676 307.763 850.995 325.422C850.949 326.595 850.736 327.212 850.216 328.241L847.821 328.773C846.712 328.961 846.246 328.927 845.25 328.365C840.212 325.525 835.262 321.282 830.532 317.907C819.778 310.235 809.017 302.572 798.295 294.855C799.803 290.485 805.391 289.547 808.75 286.876C815.975 281.132 817.505 273.155 818.344 264.543C816.352 262.461 814.083 260.854 811.758 259.172L844.968 235.281Z"/>
	<path fill="#9D4EDC" d="M678.785 338.507L755.515 286.017L759.514 289.196L759.444 353.832C753.627 353.461 748.487 350.498 742.693 350.133C732.103 349.467 721.105 350.069 710.478 350.051C705.079 350.042 699.734 350.277 694.428 349.098C693.73 347.531 692.222 346.981 690.791 346.067C686.82 343.532 682.648 341.19 678.785 338.507Z"/>
	<defs>
		<linearGradient id="gradient_6" gradientUnits="userSpaceOnUse" x1="679.36914" y1="270.09778" x2="713.07556" y2="310.92227">
			<stop offset="0" stop-color="#BE80B1"/>
			<stop offset="1" stop-color="#B15FB9"/>
		</linearGradient>
	</defs>
	<path fill="url(#gradient_6)" d="M675.611 237.949C677.998 237.166 680.022 236.285 682.233 235.093L702.053 249.631L749.386 282.748L672.173 334.535L672.387 292.249L671.958 274.183C671.621 265.897 671.617 257.613 671.554 249.322C671.524 245.355 672.103 240.277 670.993 236.476L675.611 237.949Z"/>
	<path fill="#E09DA5" d="M675.611 237.949C677.998 237.166 680.022 236.285 682.233 235.093L702.053 249.631C701.429 259.206 702.597 268.223 694.445 275.267C691.279 278.004 687.841 279.401 683.75 280.038L682.906 280.176C679.498 280.693 675.754 280.553 672.349 280.047C672.432 284.069 672.752 288.245 672.387 292.249L671.958 274.183C671.621 265.897 671.617 257.613 671.554 249.322C671.524 245.355 672.103 240.277 670.993 236.476L675.611 237.949Z"/>
	<defs>
		<linearGradient id="gradient_7" gradientUnits="userSpaceOnUse" x1="691.73248" y1="199.55989" x2="833.40295" y2="250.94518">
			<stop offset="0" stop-color="#CB8D8A"/>
			<stop offset="1" stop-color="#7B26CB"/>
		</linearGradient>
	</defs>
	<path fill="url(#gradient_7)" d="M713.327 200.968L762.846 168.901C782.633 179.249 800.562 192.069 819.087 204.419C827.308 209.899 836.402 214.421 843.357 221.566C842.048 224.671 841.371 226.828 841.533 230.234L764.484 282.87L699.317 239.586L685.296 229.547C685.19 226.255 684.939 223.261 684.197 220.049L713.327 200.968Z"/>
	<path fill="#7B2CBF" d="M419.373 271.639C421.629 263.791 425.895 256.505 433.253 252.492C437.553 250.147 442.322 249.85 447.113 249.609C453.064 249.309 459.089 249.925 465.044 249.999C475.747 250.133 486.467 250.022 497.171 250.023C537.231 250.029 577.29 250.019 617.35 250.006C619.887 253.226 622.365 256.265 623.316 260.362C624.462 265.305 623.835 271.484 623.859 276.549C623.911 287.534 623.951 298.519 623.974 309.505C623.986 314.896 624.757 321.471 623.983 326.75L623.549 327.749C625.616 328 627.567 327.997 629.645 327.905C630.895 328.477 631.975 329.019 633.077 329.861L634.308 336.752C637.291 334.993 643.427 336.452 646.75 336.966C647.572 337.787 647.276 337.289 647.586 338.488L647.945 338.698L648.096 347.5C649.155 348.341 651.121 347.92 652.492 347.862C652.762 347.275 653.023 346.74 653.192 346.115L652.98 336.833C652.527 334.429 652.901 331.258 653.297 328.855C657.546 331.135 661.823 335.827 665.517 339.014L665.589 308.287L665.999 338.491C669.585 341.62 673.609 345.345 678.065 347.174C682.965 349.185 689.195 349.053 694.428 349.098C699.734 350.277 705.079 350.042 710.478 350.051C721.105 350.069 732.103 349.467 742.693 350.133C748.487 350.498 753.627 353.461 759.444 353.832C762.776 353.927 766.052 355.77 768.991 357.2L768.97 287.42L773.544 284.47L843.055 332.952C842.945 336.393 842.786 339.363 844.225 342.59C847.068 345.38 849.622 347.406 853.578 348.466C850.918 348.753 848.42 348.979 846.018 350.274C839.749 353.656 834.371 358.776 828.543 362.864C819.997 368.859 811.063 374.201 802.624 380.374C816.616 395.83 824.912 412.484 829.669 432.742C831.5 440.536 832.887 448.481 832.446 456.518C832.352 458.229 832.034 459.835 831.657 461.5L831.468 462.36C829.877 469.232 825.737 473.976 819.862 477.612C828.122 485.477 831.354 492.21 831.637 503.741C832.114 523.094 831.994 542.5 832.018 561.86C832.036 575.944 833.214 591.405 830.406 605.25C827.656 618.803 821.499 632.134 813.444 643.344C812.185 644.644 810.803 645.914 809.852 647.46C791.902 663.607 773.193 677.08 748.688 680.471C740.135 681.654 731.492 681.541 722.879 681.496C707.223 681.415 691.573 681.051 675.915 681.019C671.515 681.01 667.115 681.005 662.715 681.002C661.397 681.001 658.965 680.679 657.75 681C656.902 681.223 656.529 683.507 656.475 684.25L656.492 726.865C655.078 724.792 655.903 689.756 655.901 684.95L651.068 689.291L651.017 680.518C646.701 680.279 642.229 680.23 637.955 679.601C633.162 678.897 628.659 677.435 624.035 676.06L623.938 729.52C623.306 726.076 624.007 722.136 623 718.822C622.228 720.093 622.515 723.502 622.447 725.084C621.488 717.9 622.107 710.137 622.103 702.881C622.098 693.821 621.54 684.543 622.434 675.525C610.901 669.503 600.567 664.124 590.616 655.58C590.514 663.155 589.631 670.98 584.325 676.848C577.357 684.553 566.832 687.602 556.75 687.919C549.534 688.146 542.283 688.036 535.064 688.039C520.145 688.044 503.139 688.934 491.588 677.734C487.515 673.784 484.536 668.482 483.142 662.994C481.883 658.034 481.989 652.88 481.956 647.805C481.916 641.677 481.889 635.551 481.833 629.423C481.63 607.301 481.521 585.178 481.399 563.056C474.037 575.382 467.714 589.874 458.075 600.547C452.371 606.862 445.1 610.122 436.64 610.528L436.02 663.73C426.465 660.837 416.879 658.006 407.359 655.002C401.244 653.073 394.402 650.15 388.039 649.354C388.054 654.97 388.564 661.283 386.87 666.697C385.47 671.169 382.381 674.967 379.117 678.217C375.571 681.746 371.033 685.258 366.139 686.538C362.049 687.608 356.83 687.07 352.593 687.068C344.506 687.063 336.419 687.051 328.332 687.053C324.7 687.055 320.367 686.614 316.937 687.949C313.277 687.212 309.788 685.609 306.39 684.104C300.541 681.512 295.276 679.017 289.972 675.388C290.626 672.883 286.123 666.409 285.107 663.477L284.821 662.625C280.65 650.411 282.35 635.227 282.397 622.424C282.441 610.484 282.455 598.544 282.462 586.603C282.481 554.852 282.402 523.097 282.567 491.346C283.235 488.915 282.965 485.75 282.971 483.233C282.984 477.889 282.986 472.545 282.987 467.201C282.994 443.183 282.97 419.165 282.971 395.147C282.971 388.128 282.974 381.108 282.987 374.089C282.996 369.378 282.809 364.579 283.422 359.898C284.093 354.766 285.473 350.125 288.66 345.934C291.983 341.564 298.227 338.264 303.536 337.149C306.83 336.457 311.018 336.923 314.384 336.927C325.648 336.94 338.137 338.033 349.278 336.382L350.021 336.267C349.992 328.928 349.971 321.589 349.95 314.25C349.933 308.222 349.478 302.003 351.192 296.156C352.386 293.802 353.524 291.609 354.124 289.015L402.064 288.993L401.616 283.539L408.402 283.574L418.669 284.022L419.013 283.873C418.052 279.81 418.794 275.701 419.373 271.639Z"/>
	<path fill="#3C096C" d="M652.98 336.833C657.553 340.089 662.342 345.164 665.683 349.667L653.654 348.314C653.341 347.528 653.224 346.96 653.192 346.115L652.98 336.833Z"/>
	<path fill="#DFAAFE" d="M401.616 283.539L408.402 283.574L418.669 284.022L418.987 289.414C418.172 289.959 417.399 290.279 416.5 290.657L413.91 289.75C410.215 288.505 405.935 288.942 402.064 288.993L401.616 283.539Z"/>
	<path fill="#DFAAFE" d="M451.356 322.978C453.901 323.099 456.378 323.25 458.179 325.279C459.416 326.673 460.142 328.697 459.931 330.563C459.596 333.526 457.332 335.197 455.129 336.86C452.156 336.622 450.389 336.553 448.347 334.193C447.17 332.833 446.237 330.847 446.511 329C446.931 326.174 449.196 324.552 451.356 322.978Z"/>
	<path fill="#FEFEFE" d="M425.748 368.485L428.151 368.46C430.14 368.497 431.913 369.058 433.284 370.563C434.668 372.082 435.699 374.673 435.378 376.75C434.924 379.685 432.252 381.44 430.024 383.004C427.605 382.976 425.043 382.616 423.204 380.887C421.808 379.576 420.546 377.477 420.654 375.5C420.836 372.162 423.363 370.375 425.748 368.485Z"/>
	<path fill="#FEFEFE" d="M389.106 298.018L391.615 298.481C393.931 299.024 395.79 300.122 396.983 302.25C398.234 304.483 398.249 307.712 397.31 310.041C396.297 312.552 393.54 313.985 391.192 314.963C389.862 314.814 388.38 314.715 387.12 314.249C385.379 313.604 383.527 311.685 382.755 310.027C381.783 307.942 381.644 305.213 382.601 303.091C383.854 300.311 386.464 299.098 389.106 298.018Z"/>
	<path fill="#3C096C" d="M634.308 336.752C637.291 334.993 643.427 336.452 646.75 336.966C647.572 337.787 647.276 337.289 647.586 338.488L647.543 348.702C642.051 349.727 634.371 351.765 628.862 351.011L629.025 343.005C631.788 341.192 632.924 339.725 634.308 336.752Z"/>
	<path fill="#9D4EDC" d="M844.225 342.59C847.068 345.38 849.622 347.406 853.578 348.466C850.918 348.753 848.42 348.979 846.018 350.274C839.749 353.656 834.371 358.776 828.543 362.864C819.997 368.859 811.063 374.201 802.624 380.374L796.969 374.679C803.844 368.125 812.962 363.537 821 358.544C828.884 353.647 836.867 348.249 844.225 342.59Z"/>
	<path fill="#9D4EDC" d="M351.192 296.156C353.825 297.757 355.813 300.213 357.802 302.526C364.088 309.839 369.338 318.018 372.308 327.222C373.102 329.684 373.369 332.198 373.682 334.752C374.14 338.489 373.401 340.391 371.615 343.637L371.528 343.808C365.698 339.304 358.163 335.592 350.577 336.193L350.021 336.267C349.992 328.928 349.971 321.589 349.95 314.25C349.933 308.222 349.478 302.003 351.192 296.156Z"/>
	<path fill="#5A189A" d="M458.934 289.489L494.606 289.695L515.748 289.97C517.268 294.491 519.185 299.31 519.997 304C521.606 313.294 522.05 322.945 520.982 332.337C518.06 331.44 515.064 328.647 512.685 326.748C502.993 319.017 494.777 309.355 484.483 302.41C480.503 299.725 476.301 297.355 471.883 295.471C467.559 293.628 462.745 292.284 458.934 289.489Z"/>
	<path fill="#5A189A" d="M419.373 271.639C432.989 271.376 446.743 270.612 460.326 269.599C469.593 268.908 479.225 267.437 488.5 268.187C495.05 268.718 502.728 269.987 507.726 274.574C510.174 276.82 512.581 280.441 513.761 283.506L494.892 283.957C494.962 285.745 495.405 288.095 494.606 289.695L458.934 289.489C454.055 288.356 448.036 288.981 443.037 288.985C435.148 288.991 426.777 288.416 418.987 289.414L418.669 284.022L419.013 283.873C418.052 279.81 418.794 275.701 419.373 271.639Z"/>
	<path fill="#C77DFF" d="M419.013 283.873L494.892 283.957C494.962 285.745 495.405 288.095 494.606 289.695L458.934 289.489C454.055 288.356 448.036 288.981 443.037 288.985C435.148 288.991 426.777 288.416 418.987 289.414L418.669 284.022L419.013 283.873Z"/>
	<path fill="#5A189A" d="M388.016 560.428C391.06 564.438 394.152 568.492 396.804 572.776C403.511 583.611 410.169 600.522 421.934 606.63C424.362 607.891 427.05 608.866 429.75 609.329C431.767 609.675 434.115 609.615 436.033 610.3L436.64 610.528L436.02 663.73C426.465 660.837 416.879 658.006 407.359 655.002C401.244 653.073 394.402 650.15 388.039 649.354L388.016 560.428Z"/>
	<path fill="#3C096C" d="M515.748 289.97C531.592 289.99 547.435 290.023 563.279 290.002C570.856 289.992 579 289.13 586.5 290.158C588.306 290.406 589.672 290.946 590.973 292.25C595.69 296.981 595.391 303.893 595.251 310.103L594.925 367.112C593.351 368.655 591.828 370.22 590.054 371.535C589.595 361.567 589.947 350.629 581.951 343.242C579.197 340.697 576.129 338.905 572.484 337.945C567.104 336.527 561.167 336.958 555.655 336.946C547.467 336.928 539.279 336.935 531.091 336.979C528.528 336.993 524.165 337.587 521.781 336.815C521.158 336.613 521.104 336.124 521.018 335.5L520.982 332.337C522.05 322.945 521.606 313.294 519.997 304C519.185 299.31 517.268 294.491 515.748 289.97Z"/>
	<path fill="#3C096C" d="M419.373 271.639C421.629 263.791 425.895 256.505 433.253 252.492C437.553 250.147 442.322 249.85 447.113 249.609C453.064 249.309 459.089 249.925 465.044 249.999C475.747 250.133 486.467 250.022 497.171 250.023C537.231 250.029 577.29 250.019 617.35 250.006C619.887 253.226 622.365 256.265 623.316 260.362C624.462 265.305 623.835 271.484 623.859 276.549C623.911 287.534 623.951 298.519 623.974 309.505C623.986 314.896 624.757 321.471 623.983 326.75L623.549 327.749C625.616 328 627.567 327.997 629.645 327.905C630.895 328.477 631.975 329.019 633.077 329.861L634.308 336.752C632.924 339.725 631.788 341.192 629.025 343.005L628.862 351.011C626.964 351.165 625.222 351.829 623.428 352.425L601.037 364.166C601.021 350.831 600.965 337.494 601.109 324.16C601.186 317.006 601.861 309.509 601.317 302.391C601.047 298.853 600.388 295.556 598.834 292.344C596.883 288.31 593.431 285.464 589.205 284.061L588.507 283.838C584.114 282.405 579.166 282.696 574.599 282.834C568.788 283.01 562.98 283.292 557.166 283.348C542.699 283.487 528.228 283.465 513.761 283.506C512.581 280.441 510.174 276.82 507.726 274.574C502.728 269.987 495.05 268.718 488.5 268.187C479.225 267.437 469.593 268.908 460.326 269.599C446.743 270.612 432.989 271.376 419.373 271.639Z"/>
	<path fill="#9D4EDC" d="M623.336 343.071L629.025 343.005L628.862 351.011C626.964 351.165 625.222 351.829 623.428 352.425L623.336 343.071Z"/>
	<path fill="#C77DFF" d="M623.549 327.749C625.616 328 627.567 327.997 629.645 327.905C630.895 328.477 631.975 329.019 633.077 329.861L634.308 336.752C632.924 339.725 631.788 341.192 629.025 343.005L623.336 343.071L622.9 342.935C620.44 342.011 618 340.021 617.022 337.53C616.342 335.799 616.351 334.131 617.178 332.454C618.537 329.697 620.735 328.617 623.549 327.749Z"/>
	<path fill="#3C096C" d="M335.627 342.277C341.243 341.895 347.64 341.511 353.202 342.338L354 342.468L355.297 342.661C361.518 343.771 367.549 346.724 371.937 351.277C376.4 355.907 379.655 361.926 382.874 367.452C386.262 373.268 389.758 379.014 393.27 384.755C402.24 399.42 411.507 413.909 420.75 428.403C425.955 436.565 430.908 444.979 436.385 452.953C441.452 442.023 448.554 432.325 455.061 422.235C464.724 407.25 474.355 392.245 484.024 377.264C489.723 368.432 494.717 357.439 501.937 349.848C504.389 347.27 507.417 345.13 510.864 344.118C517.18 342.265 524.341 342.93 530.885 342.938C537.013 342.947 543.125 342.747 549.25 342.617C559.39 342.402 571.364 341.056 579.228 348.881C581.137 350.78 582.736 352.941 583.485 355.556C584.47 358.998 584.019 363.304 584.032 366.863C584.054 373.506 584.045 380.15 584.029 386.794L596.595 375.378C606.546 367.538 617.943 360.856 630.268 357.598C638.82 355.338 647.176 355.029 655.958 354.862C666.722 354.657 677.486 354.948 688.25 354.962C705.903 354.985 723.235 354.074 740.828 356.162C765.687 359.112 788.211 371.624 803.643 391.301C814.824 405.56 822.227 423.361 824.529 441.336C825.236 446.858 825.752 452.457 825.046 458C824.468 462.531 822.902 467.229 819.062 470.018C816.958 471.546 814.662 472.274 812.117 472.608C807.713 473.186 803.159 472.972 798.723 472.98C791.435 472.994 784.148 472.981 776.86 472.982C767.457 472.984 757.016 474.142 747.741 472.683L747 472.556C737.197 470.932 734.079 465.651 732.986 456.425C732.729 454.254 732.669 451.864 730.843 450.343C729.853 449.518 728.517 449.227 727.27 449.089C719.683 448.252 711.367 448.906 703.714 448.901C689.144 448.892 674.533 448.68 659.966 448.962C657.942 449.001 655.158 448.876 653.75 450.578C652.474 452.121 652.309 454.125 652.221 456.053C651.657 468.359 652.531 480.966 652.368 493.319C652.134 511.164 651.848 529.001 651.855 546.848C651.858 554.321 651.115 563.03 652.461 570.366C652.946 573.011 654.513 575.089 656.751 576.509C658.141 577.39 660.051 577.765 661.678 577.904C669.415 578.566 677.61 577.986 685.391 578.038C695.152 578.103 704.916 578.236 714.678 578.168C719.032 578.138 724.349 578.578 728.596 577.549C730.821 577.01 731.88 575.629 732.97 573.75C732.993 571.693 733.142 571.223 732.005 569.434C729.878 568.931 727.226 570.673 725.048 571.02C723.011 571.345 720.985 571.413 718.927 571.409C698.964 571.37 679.006 571.358 659.042 571.432L659.014 455.349L725.089 456.011C726.891 462.096 728.605 469.131 733.385 473.618C740.646 480.434 752.037 480.026 761.309 479.993C767.293 479.971 773.278 479.931 779.262 479.888C790.582 479.471 804.754 477.5 815.086 482.932C819.165 485.078 821.97 488.452 823.382 492.811L823.598 493.5C823.952 494.581 824.246 495.623 824.417 496.75C825.143 501.525 824.978 506.451 824.993 511.269C825.015 518.281 825.02 525.293 825.02 532.305C825.02 544.346 825.02 556.386 825.014 568.427C825.007 582.389 825.171 596.568 821.973 610.25C819.691 620.008 815.365 629.142 809.323 637.126C794.579 656.611 771.632 669.823 747.452 673.139C739.79 674.19 732.057 674.004 724.344 674.011C714.276 674.02 704.207 674.016 694.138 674.008C683.818 674 673.497 674.016 663.176 673.991C655.905 673.974 648.56 674.109 641.323 673.302C634.706 672.564 628.144 670.897 622.02 668.274C607.234 661.941 596.348 650.447 583.789 640.842L584.451 647.417C584.916 655.789 584.744 666.011 578.677 672.549C575.813 675.635 572.171 677.765 568.094 678.832C562.032 680.418 555.125 680.035 548.897 680.155C539.627 680.333 530.359 680.444 521.095 680.816C511.724 681.192 503.323 679.675 496.326 672.948C493.247 669.988 490.536 665.747 489.746 661.538C488.661 655.754 488.976 649.627 488.985 643.76C488.999 633.842 489.217 623.935 489.365 614.02C489.747 588.402 489.915 562.703 488.921 537.097L487.929 539.065C483.422 547.788 477.746 555.858 472.724 564.277C469.019 570.489 465.334 576.716 461.649 582.939C459.265 586.964 457.068 591.302 453.972 594.839C450.862 598.393 447.312 601.02 442.758 602.435L442.03 602.655C438.692 603.708 434.474 603.921 431.05 603.099C425.833 601.846 421.41 598.251 417.986 594.25C413.194 588.651 409.933 581.39 406.19 575.071C401.804 567.666 397.065 560.457 392.625 553.081C388.714 546.584 385.108 539.921 380.99 533.547C380.936 563.627 380.868 593.705 380.698 623.784C380.651 631.969 380.663 640.153 380.649 648.337C380.641 652.763 381.243 658.64 379.791 662.827L379.54 663.5C377.794 668.44 374.941 672.447 370.434 675.25C366.142 677.92 361.37 679.29 356.411 680.059C349.431 681.141 341.85 680.608 334.781 680.62C327.414 680.633 318.768 681.458 311.65 679.738L310.75 679.504C306.318 678.385 302.271 676.347 298.793 673.348C292.415 667.848 290.813 659.871 290.311 651.886C289.103 632.676 289.935 613.22 289.983 593.976C290.074 556.961 290.397 519.948 290.509 482.934C290.586 457.543 290.721 432.14 290.464 406.751C290.316 392.221 289.031 376.992 290.157 362.523C290.567 357.267 291.392 351.642 295.139 347.637C301.032 341.336 313.107 342.541 320.924 342.513C325.825 342.496 330.727 342.374 335.627 342.277Z"/>
	<path fill="#DFAAFE" d="M680.896 501.045L751.438 500.929L764.869 500.921C756.341 509.707 749.294 519.335 742.459 529.459C740.676 532.1 738.936 534.722 737.349 537.488C737.111 537.902 736.063 540.133 735.75 540.313C735.058 540.712 731.46 540.531 730.451 540.582L680.595 540.513L680.896 501.045Z"/>
	<path fill="#9D4EDC" d="M431.431 489.678L435.991 496.659L440.149 490.018L491.068 490.339L435.624 578.026L380.556 490.148L431.431 489.678Z"/>
	<path fill="#9D4EDC" d="M312.998 490.033L357.038 490.011L357.034 657.009L313.466 657.015L312.998 490.033Z"/>
	<path fill="#9D4EDC" d="M560.008 490.434L560.026 655.743L512.584 655.912L512.965 490.901L560.008 490.434Z"/>
	<path fill="#FEFEFE" d="M313.02 365.993L352.394 366.021L431.431 489.678L380.556 490.148L357.1 453.837L357.038 490.011L312.998 490.033L313.02 365.993Z"/>
	<path fill="#FEFEFE" d="M519.854 366.552L560.009 366.967L560.008 490.434L512.965 490.901L512.886 454.663L491.068 490.339L440.149 490.018L519.854 366.552Z"/>
	<path fill="#FEFEFE" d="M582.511 489.886C582.51 481.061 582.515 472.236 582.557 463.411C582.601 454.301 582.709 445.008 584.687 436.069C587.548 423.142 594.362 410.502 603.675 401.109C614.625 390.064 629.126 382.177 644.561 379.79C650.625 378.852 656.885 378.941 663.006 378.949C677.136 378.969 691.26 379.366 705.387 379.461C715.125 379.526 725.045 378.889 734.75 379.679C752.623 381.133 769.299 388.069 782.015 400.862C795.06 413.985 800.494 430.916 801.39 449.005L755.658 449.009C751.744 440.115 747.105 430.154 737.455 426.273L735 425.453L734.208 425.207C729.71 423.892 724.516 423.952 719.838 423.779C706.01 423.265 692.118 424.09 678.288 424.35C670.388 424.498 660.424 423.31 652.832 425.285C644.399 427.479 637.087 432.991 632.6 440.5C627.488 449.057 628.431 458.81 628.452 468.346C628.468 475.566 628.489 482.786 628.514 490.006L582.511 489.886Z"/>
	<path fill="#9D4EDC" d="M582.511 489.886L628.514 490.006C628.527 507.677 628.568 525.349 628.483 543.02C628.43 554.089 626.986 565.656 629.34 576.574C630.663 582.706 633.59 589.012 638.065 593.443C641.986 597.325 646.73 599.553 652.093 600.775C664.798 603.67 679.294 602.219 692.323 602.09C702.498 601.989 712.678 602.163 722.849 602.039C732.043 601.927 742.358 600.838 749.09 593.877C751.983 590.886 754.033 587.038 755.004 583C756.296 577.629 755.958 571.636 755.975 566.145C756 557.75 756.002 549.356 755.999 540.961C747.606 540.973 738.782 541.505 730.451 540.582C731.46 540.531 735.058 540.712 735.75 540.313C736.063 540.133 737.111 537.902 737.349 537.488C738.936 534.722 740.676 532.1 742.459 529.459C749.294 519.335 756.341 509.707 764.869 500.921L751.438 500.929C756.413 500.001 762.175 500.478 767.259 500.49C778.798 500.518 790.332 500.763 801.867 501.018C801.522 520.243 801.914 539.481 801.981 558.707C802.006 566.175 802.023 573.643 802.003 581.111C801.983 588.762 801.918 596.686 799.819 604.102C797.061 613.848 790.966 622.746 783.854 629.854C763.05 650.645 735.747 649.999 708.496 650.009C695.432 650.013 682.37 650.106 669.307 650.134C661.855 650.15 654.305 650.211 646.915 649.112C630.729 646.704 615.531 638.793 604.018 627.202C595.069 618.192 587.859 607.058 584.515 594.737C582.457 587.156 582.486 579.06 582.482 571.266C582.478 563.65 582.479 556.033 582.481 548.417C582.484 528.907 582.497 509.396 582.511 489.886Z"/>
</svg>
